<?xml version="1.0" standalone="no"?>
<!DOCTYPE svg PUBLIC "-//W3C//DTD SVG 20010904//EN"
 "http://www.w3.org/TR/2001/REC-SVG-20010904/DTD/svg10.dtd">
<svg version="1.0" xmlns="http://www.w3.org/2000/svg"
 width="192.000000pt" height="192.000000pt" viewBox="0 0 192.000000 192.000000"
 preserveAspectRatio="xMidYMid meet">

<g transform="translate(0.000000,192.000000) scale(0.100000,-0.100000)"
fill="#000000" stroke="none">
<path d="M0 960 l0 -960 960 0 960 0 0 833 c-1 739 -2 830 -16 812 -8 -11 -20
-27 -27 -35 -8 -9 -12 -21 -10 -27 2 -6 -6 -14 -18 -18 -14 -5 -18 -10 -10
-15 18 -11 10 -29 -36 -77 -23 -24 -52 -62 -65 -84 -12 -21 -25 -39 -28 -39
-4 0 -7 -6 -8 -12 0 -7 -4 -23 -7 -35 -5 -16 -2 -22 12 -26 16 -4 16 -5 1 -6
-14 -1 -18 -10 -18 -37 0 -24 -4 -33 -12 -28 -8 5 -9 2 -4 -12 4 -10 14 -44
22 -73 l14 -55 -93 -95 c-347 -359 -427 -441 -430 -441 -2 0 -44 -40 -93 -88
-100 -99 -83 -80 310 336 267 283 277 295 270 325 -22 107 -130 285 -222 367
-73 66 -172 125 -264 158 -96 34 -286 43 -391 18 -248 -58 -458 -257 -542
-513 -20 -64 -32 -44 150 -237 128 -135 145 -156 128 -156 -18 0 -313 319
-313 338 0 11 11 52 24 92 82 243 306 447 554 506 77 19 255 22 319 7 24 -6
40 -7 37 -2 -3 5 19 9 49 9 68 0 118 16 110 36 -3 8 0 14 7 14 7 0 10 8 7 20
-4 16 0 20 21 20 28 0 25 9 -5 15 -29 6 -29 7 -3 14 17 5 25 14 26 30 1 13 6
26 11 30 5 3 12 16 15 29 l6 22 -699 0 -699 0 0 -960z m1081 644 l32 -6 -164
-164 -164 -164 79 -79 c44 -45 76 -84 72 -90 -4 -6 -2 -11 3 -11 6 0 11 22 11
52 0 60 11 58 17 -4 5 -53 8 -56 31 -35 10 10 22 14 25 11 4 -4 9 0 12 7 3 9
-15 36 -44 67 -27 29 -52 65 -56 82 -9 39 -18 44 -46 21 l-24 -20 35 -38 35
-38 -39 37 -39 36 31 39 c16 21 42 49 56 62 l26 24 0 -44 c0 -69 79 -182 113
-162 19 11 98 78 170 143 86 78 58 38 -63 -92 -58 -62 -104 -116 -102 -120 1
-4 -4 -8 -11 -8 -19 0 -54 -41 -54 -62 0 -15 9 -18 48 -18 26 0 51 -4 54 -10
3 -5 -2 -9 -12 -8 -43 3 -117 -3 -108 -10 6 -4 17 -20 26 -37 12 -25 21 -30
52 -30 20 0 37 -3 37 -7 0 -5 -22 -8 -50 -8 -41 0 -50 -3 -51 -17 -1 -17 -2
-17 -6 0 -2 9 -9 17 -14 17 -6 0 -3 8 6 17 16 16 16 17 -1 30 -27 20 -34 16
-35 -19 -1 -18 -5 -44 -9 -58 -6 -20 -8 -13 -9 28 l-1 54 -37 -23 c-21 -12
-58 -41 -83 -63 -79 -73 -107 -92 -61 -44 25 26 42 50 39 53 -2 3 -13 -4 -23
-15 -10 -11 -30 -20 -44 -20 -18 0 -46 -20 -95 -67 l-70 -68 65 72 c51 57 70
72 94 72 21 1 44 15 80 49 34 32 40 36 20 12 l-30 -35 32 29 c18 16 31 32 28
35 -3 2 5 15 17 28 l21 23 -41 0 c-23 0 -42 5 -42 10 0 6 19 10 43 10 l42 1
-29 22 c-17 12 -58 51 -93 87 l-63 65 -35 -37 -35 -38 0 -122 0 -123 -52 52
-51 51 -4 234 c-2 128 0 238 4 244 12 17 86 64 101 64 10 0 12 -26 10 -125 -2
-69 -1 -125 3 -125 3 0 79 77 168 171 178 186 156 172 252 153z m-188 -26
c-22 -21 -58 -40 -113 -58 l-80 -26 0 32 c0 30 4 34 53 52 68 26 84 29 132 31
l40 1 -32 -32z m368 -40 c110 -54 237 -178 292 -284 48 -94 47 -107 -2 -22
-49 83 -91 139 -101 133 -4 -2 -18 7 -31 21 -41 44 -145 114 -208 139 -67 28
-71 29 -71 17 0 -4 16 -14 36 -21 19 -7 33 -15 30 -18 -2 -3 -25 3 -51 12
l-46 18 22 23 c13 13 28 24 35 24 6 0 49 -19 95 -42z m14 -102 c75 -35 143
-117 158 -191 5 -24 2 -21 -13 13 -40 89 -101 145 -196 182 -37 14 -43 19 -24
19 14 1 48 -10 75 -23z m-789 -62 c-10 -13 -21 -22 -25 -20 -9 6 -57 -58 -96
-126 -14 -24 -25 -38 -25 -32 0 16 71 129 114 181 40 46 63 45 32 -3z m594 -9
c-7 -9 -15 -13 -17 -11 -7 7 7 26 19 26 6 0 6 -6 -2 -15z m10 -40 c-7 -9 -15
-13 -18 -10 -3 2 1 11 8 20 7 9 15 13 18 10 3 -2 -1 -11 -8 -20z m19 -33 c-7
-11 -18 -18 -26 -15 -9 4 -6 10 10 23 27 22 33 19 16 -8z m25 -27 c-6 -16 -24
-21 -24 -7 0 11 11 22 21 22 5 0 6 -7 3 -15z m391 -66 c9 -17 15 -33 13 -35
-3 -2 -12 12 -21 31 -21 43 -13 47 8 4z m-329 -6 c-10 -10 -19 5 -10 18 6 11
8 11 12 0 2 -7 1 -15 -2 -18z m34 -14 c0 -11 -4 -18 -10 -14 -5 3 -7 12 -3 20
7 21 13 19 13 -6z m27 -31 c-3 -8 -6 -5 -6 6 -1 11 2 17 5 13 3 -3 4 -12 1
-19z m-882 -19 c-5 -16 11 -40 76 -112 82 -92 82 -92 15 -27 -87 83 -109 115
-101 140 3 11 9 20 11 20 3 0 2 -9 -1 -21z m912 -1 c-3 -8 -6 -5 -6 6 -1 11 2
17 5 13 3 -3 4 -12 1 -19z m269 -26 c-3 -10 -38 -49 -78 -87 l-71 -70 72 82
c59 67 72 86 66 105 -5 20 -4 21 5 5 6 -9 9 -25 6 -35z m-264 -132 l21 -35
-32 38 c-38 43 -122 110 -129 102 -3 -3 12 -24 34 -47 43 -45 22 -34 -45 24
-38 32 -41 38 -30 56 12 20 16 18 87 -41 40 -34 83 -78 94 -97z m308 97 c0 -1
-26 -27 -57 -57 l-58 -55 55 58 c50 53 60 62 60 54z m-775 -107 c-16 -16 -38
-30 -50 -30 -11 0 -26 -5 -33 -12 -15 -15 -37 4 -29 26 5 12 11 13 36 3 28
-10 34 -9 58 16 38 37 54 34 18 -3z m92 -58 c-11 -12 -17 -36 -17 -65 0 -48
-14 -67 -33 -47 -9 9 -8 14 6 24 9 7 17 23 17 35 0 19 -3 20 -20 11 -11 -6
-26 -23 -34 -38 -9 -15 -15 -20 -16 -12 0 15 101 123 109 115 2 -3 -3 -13 -12
-23z m231 -85 c15 -2 -11 -4 -58 -4 -51 1 -64 2 -32 4 49 4 52 6 53 31 l2 27
4 -27 c3 -20 11 -28 31 -31z m-165 -4 c-7 -2 -21 -2 -30 0 -10 3 -4 5 12 5 17
0 24 -2 18 -5z m238 -37 c-6 -14 -45 -61 -87 -103 l-77 -78 64 73 c35 40 73
88 84 107 22 39 30 40 16 1z m-541 -6 c0 -5 -4 -10 -10 -10 -5 0 -10 5 -10 10
0 6 5 10 10 10 6 0 10 -4 10 -10z m100 7 c0 -2 -10 -12 -22 -23 l-23 -19 19
23 c18 21 26 27 26 19z m463 -27 c-9 -16 -44 -56 -77 -87 l-60 -58 55 63 c30
35 63 74 73 87 27 34 31 31 9 -5z m-413 7 c0 -2 -17 -19 -37 -38 l-38 -34 34
38 c33 34 41 42 41 34z m-40 -10 c0 -2 -12 -14 -27 -28 l-28 -24 24 28 c23 25
31 32 31 24z m-130 -20 c0 -2 -12 -14 -27 -28 l-28 -24 24 28 c23 25 31 32 31
24z m-80 -51 c0 -3 -4 -8 -10 -11 -5 -3 -10 -1 -10 4 0 6 5 11 10 11 6 0 10
-2 10 -4z m250 -41 c13 -14 21 -25 18 -25 -2 0 -15 11 -28 25 -13 14 -21 25
-18 25 2 0 15 -11 28 -25z m-226 -14 c-11 -9 -23 -23 -25 -30 -3 -8 -13 -15
-23 -17 -14 -2 -8 8 19 37 22 21 41 36 44 33 3 -3 -3 -13 -15 -23z m41 -21
c-3 -5 -11 -10 -16 -10 -6 0 -7 5 -4 10 3 6 11 10 16 10 6 0 7 -4 4 -10z m375
-48 c0 -18 -11 -38 -30 -57 l-30 -29 -30 29 c-19 19 -30 39 -30 57 0 28 1 28
60 28 59 0 60 0 60 -28z m-284 -4 l19 -23 -25 20 c-14 11 -27 21 -29 22 -2 2
0 3 6 3 5 0 18 -10 29 -22z"/>
<path d="M662 1207 c-45 -46 -52 -58 -52 -92 l1 -40 19 40 c10 22 35 56 54 75
l36 34 45 -44 c63 -62 86 -60 33 2 -74 86 -76 86 -136 25z"/>
<path d="M562 1034 c-2 -29 4 -46 17 -58 19 -17 19 -17 14 3 -3 12 -9 21 -14
21 -4 0 -10 17 -12 38 l-4 37 -1 -41z"/>
<path d="M1020 940 c0 -5 5 -10 11 -10 5 0 7 5 4 10 -3 6 -8 10 -11 10 -2 0
-4 -4 -4 -10z"/>
<path d="M775 1553 c-50 -15 -73 -28 -64 -37 5 -5 139 41 148 50 9 9 -36 2
-84 -13z"/>
<path d="M720 930 c0 -5 5 -10 10 -10 6 0 10 5 10 10 0 6 -4 10 -10 10 -5 0
-10 -4 -10 -10z"/>
<path d="M875 800 c-3 -5 -1 -10 4 -10 6 0 11 5 11 10 0 6 -2 10 -4 10 -3 0
-8 -4 -11 -10z"/>
</g>
</svg>
