<?xml version="1.0" standalone="no"?>
<!DOCTYPE svg PUBLIC "-//W3C//DTD SVG 20010904//EN"
 "http://www.w3.org/TR/2001/REC-SVG-20010904/DTD/svg10.dtd">
<svg version="1.0" xmlns="http://www.w3.org/2000/svg"
 width="512.000000pt" height="512.000000pt" viewBox="0 0 512.000000 512.000000"
 preserveAspectRatio="xMidYMid meet">

<g transform="translate(0.000000,512.000000) scale(0.100000,-0.100000)"
fill="#000000" stroke="none">
<path d="M0 2560 l0 -2560 2560 0 2560 0 0 2210 c0 1216 -3 2210 -8 2210 -18
0 -52 -33 -52 -50 0 -10 -9 -25 -19 -32 -10 -8 -21 -25 -23 -38 -2 -15 -14
-30 -31 -38 -27 -13 -28 -15 -12 -32 12 -13 14 -24 8 -35 -6 -9 -13 -16 -17
-15 -13 4 -66 -22 -66 -33 0 -5 8 -16 17 -23 16 -11 16 -16 5 -34 -10 -16 -10
-25 -2 -35 9 -11 4 -18 -27 -32 -25 -12 -38 -25 -38 -38 0 -11 -11 -28 -25
-37 -14 -10 -27 -27 -30 -40 -4 -15 -19 -26 -49 -36 -38 -13 -42 -17 -37 -38
5 -17 2 -24 -7 -24 -23 0 -47 -33 -37 -50 15 -24 -35 -69 -71 -63 -32 5 -37
-4 -13 -22 15 -11 15 -14 -1 -39 -10 -15 -26 -31 -37 -37 -14 -8 -16 -14 -8
-29 12 -22 -2 -58 -26 -73 -8 -4 -14 -24 -14 -43 0 -28 5 -36 25 -44 14 -5 32
-7 40 -4 8 4 15 2 15 -4 0 -6 -18 -13 -41 -17 -48 -8 -58 -26 -34 -61 12 -19
14 -29 5 -39 -7 -9 -9 -27 -5 -45 l7 -32 -26 17 c-14 10 -26 26 -26 36 0 11
-4 19 -10 19 -13 0 -13 -27 0 -35 6 -3 10 -15 10 -26 0 -11 10 -48 21 -82 28
-80 69 -245 69 -275 0 -15 -36 -60 -113 -140 -63 -64 -323 -335 -579 -602
-256 -267 -603 -621 -772 -788 -168 -167 -306 -305 -306 -307 0 -3 -12 -17
-27 -33 -16 -15 -39 -42 -53 -60 -14 -17 -31 -32 -38 -32 -19 0 11 36 142 170
61 63 127 133 145 155 19 22 61 69 95 105 609 650 813 866 1100 1169 138 146
271 287 295 314 l44 49 -12 51 c-78 324 -271 670 -515 925 -242 253 -580 452
-906 536 -176 45 -229 51 -495 50 -241 -1 -269 -2 -385 -27 -167 -35 -290 -77
-435 -146 -533 -257 -945 -765 -1086 -1339 l-13 -52 55 -58 c232 -240 749
-793 749 -800 0 -5 -7 -15 -16 -22 -13 -11 -24 -4 -77 52 -34 35 -197 206
-362 378 -404 422 -404 422 -405 446 0 12 11 65 25 117 183 706 778 1306 1472
1486 284 74 583 86 863 35 132 -24 170 -28 170 -16 0 6 -12 15 -28 20 -20 7 0
10 83 9 155 -1 249 10 298 34 53 27 51 24 35 48 -12 19 -10 24 16 44 26 21 28
28 24 65 -7 48 -2 51 71 48 44 -3 51 -1 51 15 0 15 -8 19 -37 20 -21 1 -46 0
-57 -1 -17 -2 -35 15 -36 33 0 4 15 7 34 7 25 0 43 8 65 31 35 35 37 42 16 59
-16 13 -21 35 -6 25 5 -3 11 7 13 22 2 18 10 29 23 32 30 5 36 21 30 70 -4 24
-3 41 2 38 4 -3 17 1 28 9 16 12 -240 14 -1858 14 l-1877 0 0 -2560z m2879
1724 c51 -12 71 -21 69 -30 -2 -8 -190 -204 -418 -435 -228 -232 -417 -426
-419 -431 -2 -6 77 -92 176 -192 99 -99 187 -191 196 -204 10 -16 13 -37 10
-63 -6 -39 9 -55 21 -23 11 29 27 198 21 226 -5 20 -3 28 8 28 18 0 47 -73 36
-91 -9 -15 -4 -78 12 -141 8 -31 12 -35 32 -30 12 3 35 20 51 39 16 18 34 33
41 33 21 0 65 40 65 60 0 10 -12 26 -27 35 -47 31 -197 188 -224 235 -24 41
-63 149 -71 194 -2 14 -16 6 -70 -44 -38 -34 -68 -67 -68 -73 0 -6 12 -24 27
-39 15 -15 22 -28 17 -28 -6 0 -27 18 -48 39 l-38 39 48 54 c76 84 238 248
245 248 4 0 8 -42 11 -94 4 -87 7 -101 47 -181 34 -70 62 -107 143 -191 55
-57 104 -104 109 -104 4 0 9 10 11 23 2 13 11 23 24 25 12 2 27 14 34 28 7 13
19 24 27 24 7 0 13 6 13 14 0 18 107 116 126 116 8 0 59 42 112 93 143 137
250 229 261 225 20 -6 -206 -264 -442 -503 -81 -82 -150 -160 -153 -172 -4
-13 -14 -23 -24 -23 -22 0 -148 -136 -156 -167 -4 -13 -10 -23 -16 -23 -5 0
-7 -4 -4 -9 10 -16 146 -34 203 -27 41 5 59 2 78 -10 33 -22 32 -38 -1 -30
-24 6 -220 -8 -283 -20 -26 -6 -18 -20 14 -26 15 -3 19 -10 17 -31 -2 -15 6
-40 16 -55 36 -52 37 -55 11 -47 -13 4 -40 22 -61 41 -48 43 -75 57 -83 44 -4
-6 -15 -69 -25 -141 -10 -72 -21 -133 -24 -136 -3 -3 -7 5 -10 18 -6 24 -26
207 -26 230 0 8 -9 4 -22 -8 -13 -11 -54 -39 -93 -63 -38 -23 -108 -77 -154
-119 -178 -162 -283 -252 -289 -247 -3 4 3 16 14 29 11 12 60 67 110 122 114
128 147 172 139 185 -3 5 2 10 14 10 21 0 54 37 45 52 -3 4 0 8 5 8 6 0 11 5
11 10 0 6 8 18 18 29 79 83 83 89 65 95 -10 3 -62 10 -115 17 -54 7 -98 16
-98 20 0 4 26 10 58 14 136 15 166 21 165 30 -1 6 -15 15 -33 21 -20 7 -105
84 -234 213 -141 141 -206 200 -217 195 -7 -4 -47 -41 -87 -84 l-72 -77 -4
-89 c-2 -49 -4 -192 -5 -319 -1 -126 -5 -236 -10 -244 -7 -11 -39 16 -139 118
l-129 132 -6 151 c-4 83 -7 371 -7 639 l0 488 58 44 c79 60 197 135 219 139
17 3 18 -15 20 -336 1 -186 4 -341 7 -343 4 -4 270 264 746 751 l145 148 81
-6 c45 -3 113 -13 153 -22z m-431 3 c-2 -8 -42 -51 -90 -96 l-87 -82 -113 -30
c-62 -16 -148 -43 -190 -60 -43 -16 -82 -27 -88 -24 -5 3 -10 40 -10 80 0 66
2 76 23 89 33 21 241 91 327 109 137 29 233 35 228 14z m766 -111 c316 -120
650 -397 849 -703 77 -119 129 -218 157 -299 21 -60 20 -87 -2 -38 -7 16 -29
57 -50 92 -21 34 -38 65 -38 68 0 3 -25 44 -56 92 -81 125 -173 237 -215 261
-20 11 -63 44 -97 73 -148 129 -297 236 -407 291 -94 46 -286 119 -301 113
-31 -12 -9 -38 46 -55 71 -23 142 -59 135 -70 -3 -5 -20 -5 -37 -1 -64 15
-222 78 -226 89 -2 6 23 38 57 70 67 67 55 66 185 17z m121 -315 c33 -12 96
-42 140 -67 166 -94 321 -311 350 -489 5 -32 -5 -18 -49 70 -59 118 -147 236
-209 282 -21 15 -54 42 -73 60 -56 51 -267 153 -316 153 -9 0 -20 5 -24 11
-11 19 111 5 181 -20z m-2015 -151 c0 -68 -1 -70 -25 -70 -13 0 -33 -9 -44
-21 -11 -12 -24 -19 -29 -15 -23 14 -187 -210 -272 -374 -33 -65 -59 -106 -60
-93 0 26 114 250 171 336 73 107 239 307 256 307 2 0 3 -31 3 -70z m1495 10
c19 -7 19 -8 2 -15 -12 -5 -24 -2 -35 9 -13 13 -14 16 -2 15 8 0 24 -4 35 -9z
m105 -49 c0 -12 -74 -71 -89 -71 -19 0 -12 23 16 52 25 26 73 39 73 19z m20
-89 c0 -23 -65 -86 -79 -78 -16 11 -14 18 20 59 33 40 59 48 59 19z m45 -82
c10 -16 -47 -99 -68 -100 -31 0 -30 28 3 70 31 40 53 50 65 30z m-120 -60 c3
-5 1 -10 -4 -10 -6 0 -11 5 -11 10 0 6 2 10 4 10 3 0 8 -4 11 -10z m175 -29
c0 -19 -42 -81 -55 -81 -23 0 -26 17 -8 54 12 26 23 36 40 36 13 0 23 -4 23
-9z m-123 -67 c-3 -3 -12 -4 -19 -1 -8 3 -5 6 6 6 11 1 17 -2 13 -5z m1147
-147 c35 -75 41 -111 10 -52 -38 70 -57 118 -45 110 6 -3 22 -30 35 -58z
m-864 29 c0 -25 -19 -66 -30 -66 -17 0 -23 30 -12 56 12 26 42 33 42 10z m78
-87 c-2 -22 -8 -34 -18 -34 -19 0 -26 51 -9 71 18 21 31 3 27 -37z m1262 17
c0 -8 -4 -18 -10 -21 -5 -3 -10 3 -10 14 0 12 5 21 10 21 6 0 10 -6 10 -14z
m-1180 -66 c0 -20 -5 -30 -15 -30 -10 0 -15 10 -15 30 0 20 5 30 15 30 10 0
15 -10 15 -30z m780 -66 c0 -7 8 -26 17 -42 l17 -29 -76 -89 c-70 -82 -167
-179 -277 -279 -54 -49 101 133 229 269 50 53 90 100 90 106 0 6 -7 27 -15 47
-8 19 -15 43 -15 52 1 13 3 13 15 -3 8 -11 15 -25 15 -32z m-3130 19 c-1 -5
-7 -19 -15 -33 -26 -46 -18 -65 63 -146 135 -137 334 -355 328 -361 -6 -7
-345 339 -394 403 l-34 43 17 51 c9 27 21 50 26 50 5 0 9 -3 9 -7z m2440 -5
c0 -7 -5 -20 -10 -28 -12 -19 -35 2 -27 24 7 19 37 21 37 4z m-313 -144 c161
-134 245 -215 289 -281 18 -28 34 -54 34 -57 0 -4 -42 36 -92 88 -51 51 -118
110 -149 129 -31 20 -63 42 -70 50 -20 19 -92 67 -101 67 -18 0 -5 -21 50 -77
72 -75 165 -183 157 -183 -4 0 -28 18 -53 40 -26 22 -97 83 -159 135 -61 52
-115 100 -119 106 -3 6 8 24 25 39 17 16 31 34 31 39 0 26 37 4 157 -95z
m1063 -107 c-40 -40 -62 -58 -49 -42 44 55 113 124 118 119 3 -2 -28 -37 -69
-77z m-1934 -148 c3 -6 -26 -43 -67 -85 -73 -74 -74 -74 -127 -74 -41 0 -61
-6 -86 -25 -40 -30 -44 -31 -73 -3 -30 28 -30 63 2 84 23 15 27 15 60 -5 20
-12 56 -22 81 -23 44 -1 48 1 117 70 75 75 81 79 93 61z m454 -123 c0 -7 7
-20 16 -27 14 -11 18 -10 29 5 13 17 15 17 37 2 12 -9 40 -16 62 -16 74 0 23
-19 -59 -22 l-80 -3 -6 -35 -5 -35 -10 35 c-9 29 -15 35 -42 38 -38 4 -43 22
-7 22 17 0 29 8 37 25 12 27 28 33 28 11z m270 -48 c0 -15 -28 -20 -50 -8
l-21 11 23 19 c21 18 24 18 36 3 6 -9 12 -21 12 -25z m-500 -2 c0 -7 -19 -31
-42 -52 l-43 -39 -2 -80 c-6 -175 -8 -196 -23 -205 -22 -14 -41 -12 -62 7 -34
31 -20 70 36 98 17 8 22 21 24 64 2 30 -2 59 -7 64 -16 16 -114 -82 -107 -106
4 -17 -38 -77 -54 -77 -5 0 -12 15 -15 34 -7 32 -2 38 132 169 132 130 163
154 163 123z m-301 -23 c-65 -75 -117 -126 -141 -139 -15 -8 -53 -14 -85 -14
l-58 0 -70 -68 c-218 -210 -255 -245 -255 -236 0 5 70 82 156 172 l156 162 64
0 c68 0 113 16 136 49 13 19 108 101 117 101 2 0 -6 -12 -20 -27z m778 -185
c-3 -7 -5 -2 -5 12 0 14 2 19 5 13 2 -7 2 -19 0 -25z m18 -68 c3 -5 25 -11 48
-12 l42 -1 -40 -4 c-22 -3 -45 -9 -52 -15 -7 -5 -18 -6 -25 -1 -7 4 -42 11
-78 14 l-65 6 60 2 c33 1 67 6 75 11 19 12 27 12 35 0z m-402 -10 c7 0 4 -5
-6 -11 -22 -13 -67 -1 -46 12 8 5 20 7 27 4 8 -3 19 -5 25 -5z m142 1 c7 -12
-12 -24 -25 -16 -11 7 -4 25 10 25 5 0 11 -4 15 -9z m539 -88 c-4 -21 -14 -49
-23 -63 -14 -24 -104 -134 -126 -155 -6 -5 -64 -62 -129 -125 -65 -63 -117
-110 -115 -103 2 7 72 87 154 179 83 92 170 198 195 235 24 38 46 69 48 69 1
0 0 -17 -4 -37z m-1204 -37 l-23 -21 19 33 c10 18 20 28 23 21 2 -6 -7 -21
-19 -33z m-260 9 c17 -20 5 -45 -20 -45 -11 0 -23 7 -26 15 -6 15 11 45 26 45
4 0 13 -7 20 -15z m1532 -42 c-35 -69 -323 -376 -338 -361 -6 7 46 69 239 286
60 68 111 121 114 118 2 -2 -4 -21 -15 -43z m-1153 -49 c-44 -45 -49 -35 -8
15 19 22 36 35 38 30 2 -6 -12 -26 -30 -45z m-79 19 c-1 -20 -117 -129 -127
-120 -4 4 20 34 52 67 56 56 75 70 75 53z m10 -86 c0 -2 -17 -19 -37 -38 l-38
-34 34 38 c33 34 41 42 41 34z m-400 -10 c0 -2 -15 -16 -32 -33 l-33 -29 29
33 c28 30 36 37 36 29z m-170 -90 c0 -18 -36 -51 -44 -39 -6 10 21 52 35 52 5
0 9 -6 9 -13z m110 -110 c0 -26 -43 -71 -77 -82 -17 -5 -23 -14 -23 -35 0 -18
-8 -34 -20 -43 -22 -15 -70 -11 -70 5 0 15 163 178 178 178 6 0 12 -10 12 -23z
m85 -76 c7 -12 -34 -41 -59 -41 -18 0 -18 2 4 25 24 26 45 32 55 16z m973
-149 l3 -73 -67 -75 c-36 -40 -74 -74 -84 -74 -9 0 -47 31 -83 70 l-67 70 0
73 c0 41 3 77 7 81 4 3 70 5 147 4 l141 -3 3 -73z m-780 8 c18 -22 28 -40 23
-40 -6 0 -11 5 -11 10 0 6 -4 10 -10 10 -15 0 -50 33 -50 47 0 22 14 14 48
-27z m722 -599 c0 -13 -61 -73 -68 -67 -6 7 46 76 59 76 5 0 9 -4 9 -9z m-80
-91 c0 -5 -2 -10 -4 -10 -3 0 -8 5 -11 10 -3 6 -1 10 4 10 6 0 11 -4 11 -10z"/>
<path d="M1677 3983 c-4 -3 -7 -11 -7 -17 0 -6 5 -5 12 2 6 6 9 14 7 17 -3 3
-9 2 -12 -2z"/>
<path d="M1765 3210 l-148 -149 7 -66 c4 -35 11 -75 16 -87 l9 -23 6 22 c4 12
13 24 21 27 9 4 14 21 14 52 0 45 3 49 103 153 56 58 111 107 123 109 15 2 35
-12 69 -50 91 -102 206 -202 215 -188 4 7 15 10 23 7 45 -17 -46 87 -239 274
l-70 69 -149 -150z"/>
<path d="M2796 3095 c-7 -20 23 -33 34 -14 5 7 6 17 4 21 -9 13 -32 9 -38 -7z"/>
<path d="M1511 2752 c-1 -101 0 -105 31 -148 37 -52 53 -56 44 -13 -3 17 -6
42 -6 55 0 17 -8 28 -25 34 -23 9 -25 15 -26 72 -1 112 -18 112 -18 0z"/>
<path d="M2220 4178 c-95 -20 -286 -80 -302 -95 -23 -21 -23 -43 0 -43 9 0 42
9 72 21 79 29 127 45 195 64 68 19 108 41 100 55 -4 6 -9 10 -13 9 -4 -1 -27
-5 -52 -11z"/>
<path d="M1924 2495 c-4 -9 -2 -21 4 -27 15 -15 44 -1 40 19 -4 23 -36 29 -44
8z"/>
<path d="M2343 2153 c-7 -2 -13 -14 -13 -25 0 -14 6 -19 23 -16 14 2 22 10 22
22 0 21 -12 28 -32 19z"/>
<path d="M4390 3371 c0 -6 4 -13 10 -16 6 -3 7 1 4 9 -7 18 -14 21 -14 7z"/>
<path d="M4410 3331 c0 -6 5 -13 10 -16 6 -3 10 1 10 9 0 9 -4 16 -10 16 -5 0
-10 -4 -10 -9z"/>
</g>
</svg>
